<svg xmlns="http://www.w3.org/2000/svg" xmlns:xlink="http://www.w3.org/1999/xlink" viewBox="0,0,256,256" width="48px" height="48px" fill-rule="nonzero"><g fill="#ffffff" fill-rule="nonzero" stroke="none" stroke-width="1" stroke-linecap="butt" stroke-linejoin="miter" stroke-miterlimit="10" stroke-dasharray="" stroke-dashoffset="0" font-family="none" font-weight="none" font-size="none" text-anchor="none" style="mix-blend-mode: normal"><g transform="scale(10.66667,10.66667)"><path d="M12,11c2.206,0 4,-1.794 4,-4v-1c0,-2.206 -1.794,-4 -4,-4c-2.206,0 -4,1.794 -4,4v1c0,2.206 1.794,4 4,4zM20.921,18.882c-0.094,-0.146 -2.354,-3.604 -6.784,-4.863c-0.045,-0.013 -0.091,-0.019 -0.137,-0.019h-4c-0.046,0 -0.092,0.006 -0.137,0.019c-4.43,1.259 -6.69,4.717 -6.784,4.863c-0.052,0.081 -0.079,0.175 -0.079,0.27v1.348c0,0.276 0.224,0.5 0.5,0.5h17c0.276,0 0.5,-0.224 0.5,-0.5v-1.348c0,-0.095 -0.027,-0.189 -0.079,-0.27z"></path></g></g></svg>